<?xml version="1.0" encoding="UTF-8"?> <svg xmlns="http://www.w3.org/2000/svg" width="500" height="400" viewBox="0 0 500 400" fill="none"><path d="M319.203 157.943C319.203 157.943 362.636 154.615 375.411 163.459C398.433 179.395 404.885 265.648 387.008 296.215C373.884 318.655 293.458 307.072 293.458 307.072L319.203 157.943Z" fill="white"></path><path d="M391.544 276.264L373.542 276.114C373.077 276.109 372.611 276.104 372.145 276.099C372.05 274.75 371.946 273.409 371.836 272.083C374.798 274.018 378.41 274.976 382.058 274.976C385.651 274.976 389.28 274.044 392.35 272.2C392.102 273.583 391.833 274.938 391.544 276.264" fill="#B9AFBE"></path><path d="M336.364 312.573C336.01 312.573 335.658 312.573 335.301 312.571C313.63 312.481 293.304 309.588 293.1 309.559C291.727 309.361 290.775 308.087 290.972 306.715C291.17 305.341 292.45 304.388 293.816 304.588C315.722 307.739 374.778 312.152 384.84 294.947C402.389 264.94 395.285 180.271 373.981 165.524C364.108 158.689 331.232 159.543 319.396 160.448C318.011 160.551 316.806 159.518 316.699 158.136C316.594 156.752 317.629 155.546 319.013 155.439C320.821 155.302 363.486 152.15 376.839 161.392C388.154 169.226 396.457 192.684 399.05 224.144C401.021 248.066 399.463 279.894 389.177 297.482C383.319 307.497 365.551 312.573 336.364 312.573" fill="#141312"></path><path d="M394.925 234.474L372.622 236.199C370.631 236.353 368.992 237.828 368.642 239.794C367.355 246.993 365.249 263.775 372.262 269.299C378.082 273.885 387.515 273.324 393.033 268.632C399.203 263.385 399.771 246.929 399.652 238.784C399.614 236.251 397.451 234.278 394.925 234.474" fill="white"></path><path d="M382.052 269.962C379.031 269.962 376.056 269.091 373.816 267.326C372.557 266.335 371.588 264.708 370.917 262.541C370.822 261.661 370.721 260.785 370.619 259.916C371.027 260.354 371.511 260.598 372.087 260.598C372.195 260.598 372.309 260.588 372.426 260.571C373.586 260.39 375.036 257.261 375.036 257.261C375.036 257.261 379.179 263.589 385.525 263.587C388.226 263.587 391.327 262.44 394.676 259.171C394.942 258.911 395.202 258.633 395.453 258.337C394.478 262.376 393.108 265.271 391.405 266.719C388.876 268.869 385.435 269.962 382.052 269.962" fill="#B9AFBE"></path><path d="M395.119 236.978L372.816 238.703C371.962 238.769 371.263 239.399 371.113 240.235C368.666 253.938 369.676 264.066 373.816 267.326C378.564 271.068 386.618 270.79 391.405 266.719C395.203 263.49 397.347 253.06 397.141 238.82C397.133 238.296 396.915 237.814 396.53 237.462C396.144 237.11 395.647 236.937 395.119 236.978V236.978ZM382.057 274.976C377.932 274.976 373.853 273.75 370.706 271.272C362.897 265.119 364.511 248.632 366.168 239.351C366.719 236.264 369.295 233.938 372.428 233.694L394.732 231.97C396.627 231.825 398.513 232.473 399.915 233.752C401.317 235.029 402.135 236.85 402.163 238.747C402.329 250.201 401.162 265.017 394.658 270.546C391.201 273.486 386.6 274.976 382.057 274.976" fill="#141312"></path><path d="M382.35 274.398C381.856 274.117 381.608 273.924 381.28 273.681C380.979 273.447 380.688 273.208 380.418 272.958C379.867 272.463 379.365 271.94 378.901 271.39C377.98 270.289 377.162 269.123 376.527 267.875C375.207 265.406 374.412 262.748 374.021 260.091C373.853 258.758 373.706 257.432 373.698 256.105C373.631 254.773 373.7 253.499 373.746 252.192C373.807 250.893 373.914 249.593 374.086 248.294C374.281 246.981 374.465 245.741 374.949 244.37C375.07 244.026 375.447 243.847 375.793 243.968C376.114 244.082 376.291 244.418 376.216 244.743L376.194 244.829C375.934 245.903 375.84 247.218 375.796 248.439C375.757 249.685 375.781 250.937 375.85 252.189C375.99 254.712 376.258 257.175 376.846 259.523C377.437 261.869 378.376 264.092 379.673 266.009C380.296 266.985 381.057 267.846 381.855 268.624C382.254 269.012 382.679 269.369 383.113 269.684C383.329 269.848 383.549 269.99 383.768 270.126C383.963 270.248 384.25 270.403 384.32 270.424C385.503 270.788 386.167 272.04 385.805 273.223C385.443 274.406 384.19 275.073 383.006 274.709C382.85 274.661 382.704 274.597 382.566 274.521L382.35 274.398" fill="#141312"></path><path d="M345.373 173.559C344.42 173.559 343.51 173.016 343.087 172.093C342.51 170.832 343.063 169.341 344.325 168.764C364.689 159.436 377.167 162.223 377.687 162.345C379.038 162.664 379.873 164.017 379.554 165.368C379.235 166.714 377.889 167.55 376.545 167.237C376.387 167.202 365.018 164.808 346.418 173.33C346.077 173.486 345.722 173.559 345.373 173.559" fill="#141312"></path><path d="M230.376 173.814C230.376 173.814 210.432 233.696 155.692 253.025V289.759H230.376V173.814" fill="white"></path><path d="M230.378 173.811V289.755H155.693V253.022C210.43 233.696 230.378 173.811 230.378 173.811Z" fill="white"></path><path d="M207.904 274.986H201.779L198.385 261.202C199.421 259.898 200.432 258.577 201.412 257.249C201.565 262.477 204.636 266.949 209.019 269.141C208.623 271.227 208.249 273.179 207.904 274.986ZM210.175 244.038C212.067 240.864 213.814 237.706 215.419 234.621C214.89 237.543 214.371 240.401 213.864 243.174C212.587 243.292 211.348 243.583 210.175 244.038Z" fill="#B9AFBE"></path><path d="M158.203 287.248H227.865V186.296C225.103 192.095 221.093 199.565 215.64 207.584C204.849 223.443 186.191 244.35 158.203 254.786V287.248ZM232.889 292.27H153.179V251.248L154.856 250.657C207.759 231.975 227.798 173.607 227.995 173.019L232.889 158.368V292.27" fill="#141312"></path><path d="M370.348 289.755H207.591C207.591 289.755 216.551 244.709 224.689 196.082C225.951 188.548 227.195 180.924 228.382 173.371C238.278 110.309 332.598 151.431 332.598 151.431C332.598 151.431 336.283 156.474 341.351 166.419C351.843 186.984 368.276 228.527 370.348 289.755" fill="white"></path><path d="M210.645 287.248H367.74C364.375 205.116 334.691 158.959 330.954 153.461C324.767 150.896 275.689 131.409 248.437 146.376C238.795 151.669 232.882 160.882 230.86 173.76C223.232 222.359 213.166 274.378 210.645 287.248V287.248ZM372.946 292.27H204.529L205.127 289.268C205.247 288.668 217.171 228.575 225.897 172.98C228.173 158.485 234.944 148.051 246.025 141.969C277.165 124.876 331.314 148.128 333.603 149.127L334.228 149.398L334.628 149.948C334.99 150.445 343.593 162.355 352.659 185.622C360.989 206.996 371.255 242.4 372.857 289.673L372.946 292.27" fill="#141312"></path><path d="M203.468 257.154C203.636 263.599 208.998 268.69 215.445 268.522C221.891 268.354 226.982 262.992 226.814 256.545C226.646 250.098 221.283 245.008 214.836 245.176C208.39 245.344 203.3 250.707 203.468 257.154Z" fill="white"></path><path d="M215.179 266.469C209.989 266.467 205.66 262.33 205.523 257.099C205.499 256.133 205.615 255.186 205.865 254.279C208.01 256.884 211.261 258.539 214.874 258.539C214.976 258.539 215.08 258.537 215.184 258.536C216.173 258.509 217.132 258.361 218.044 258.105L217.631 266.143C216.915 266.334 216.164 266.445 215.391 266.465C215.32 266.467 215.25 266.469 215.179 266.469" fill="#B9AFBE"></path><path d="M215.147 247.23C215.062 247.23 214.976 247.23 214.891 247.231C212.32 247.299 209.933 248.362 208.164 250.226C206.395 252.09 205.457 254.531 205.523 257.099C205.663 262.403 210.107 266.58 215.391 266.465C220.694 266.327 224.895 261.901 224.757 256.599C224.689 254.031 223.626 251.641 221.764 249.872C219.962 248.161 217.621 247.23 215.147 247.23V247.23ZM215.136 270.582C207.726 270.582 201.605 264.655 201.413 257.206C201.316 253.54 202.655 250.055 205.181 247.394C207.705 244.734 211.116 243.216 214.782 243.119C218.465 243.027 221.935 244.363 224.596 246.888C227.256 249.413 228.773 252.824 228.869 256.492C229.066 264.061 223.069 270.38 215.499 270.577C215.378 270.581 215.256 270.582 215.136 270.582" fill="#141312"></path><path d="M222.468 235.113C222.527 234.115 222.576 233.126 222.619 232.146C222.664 233.024 222.701 233.913 222.734 234.808C222.644 234.909 222.555 235.011 222.468 235.113Z" fill="#B9AFBE"></path><path d="M232.038 290.838L293.016 293.973C300.233 294.345 306.446 288.743 306.82 281.517L308.487 249.068C308.811 242.741 304.554 237.196 298.64 235.664C297.803 235.442 296.93 235.312 296.03 235.264L235.062 232.129C227.836 231.756 221.622 237.359 221.259 244.586L219.932 270.286L219.584 277.034C219.21 284.261 224.821 290.466 232.038 290.838" fill="white"></path><path d="M265.688 275.709L263.787 275.706C264.422 275.599 265.046 275.484 265.653 275.359C265.665 275.476 265.676 275.593 265.688 275.709V275.709ZM232.885 274.985H222.205L222.381 271.56C225.254 272.897 228.852 274.076 233.358 274.956L232.885 274.985" fill="#B9AFBE"></path><path d="M293.141 291.466C298.989 291.773 304.009 287.249 304.309 281.391L305.977 248.938C306.278 243.081 301.758 238.071 295.902 237.77L234.931 234.635C232.107 234.489 229.387 235.463 227.27 237.372C225.154 239.282 223.908 241.889 223.763 244.71L222.093 277.164C221.948 279.986 222.921 282.708 224.829 284.824C226.74 286.941 229.346 288.187 232.168 288.332L293.143 291.466H293.141V291.466ZM293.699 296.505C293.427 296.505 293.156 296.498 292.884 296.483H292.883L231.912 293.349C227.748 293.135 223.91 291.302 221.101 288.189C218.292 285.075 216.864 281.069 217.078 276.906L218.746 244.452C219.189 235.83 226.577 229.181 235.188 229.618L296.16 232.753C304.783 233.197 311.439 240.574 310.994 249.196L309.326 281.65C309.112 285.811 307.279 289.652 304.166 292.46C301.256 295.085 297.567 296.505 293.699 296.505" fill="#141312"></path><path d="M229.604 290.473C230.386 290.678 231.194 290.8 232.038 290.838L293.016 293.973C298.304 294.241 303.053 291.312 305.359 286.869C306.198 285.256 306.716 283.445 306.812 281.516L307.557 267.1L307.804 262.345L308.487 249.068C308.858 241.841 303.247 235.636 296.03 235.264L282.853 234.589C288.868 236.045 293.218 241.637 292.892 248.028L291.997 265.555L291.227 280.486C290.854 287.703 284.64 293.314 277.423 292.941L229.604 290.473" fill="white"></path><path d="M288.776 291.241L293.146 291.466C295.965 291.613 298.683 290.642 300.799 288.732C302.917 286.821 304.162 284.215 304.307 281.391L305.974 248.938C306.122 246.116 305.15 243.396 303.241 241.278C301.331 239.16 298.723 237.915 295.899 237.768L291.973 237.566C294.309 240.478 295.604 244.214 295.4 248.159L293.733 280.613C293.524 284.684 291.767 288.449 288.776 291.241V291.241ZM293.707 296.505C293.434 296.505 293.161 296.497 292.886 296.483L231.91 293.346C230.932 293.303 229.942 293.155 228.981 292.91L229.73 287.968L277.555 290.43C280.372 290.576 283.092 289.605 285.208 287.697C287.326 285.785 288.572 283.178 288.716 280.356L290.383 247.903C290.645 242.807 287.232 238.232 282.266 237.026L282.987 232.077L296.157 232.751C300.322 232.968 304.161 234.8 306.97 237.913C309.778 241.028 311.208 245.035 310.991 249.198L309.324 281.648C309.112 285.811 307.279 289.652 304.164 292.462C301.257 295.085 297.571 296.505 293.707 296.505" fill="#141312"></path><path d="M268.003 263.285C267.949 264.484 269.195 274.252 269.195 274.252C269.195 274.252 272.263 274.391 276.033 274.564C280.741 274.778 284.782 270.077 285.057 264.063C285.33 258.049 281.736 252.999 277.027 252.783C273.85 252.638 270.188 252.472 270.188 252.472C270.188 252.472 268.092 261.328 268.003 263.285" fill="#22A7F0"></path><path d="M268.003 263.285H268.011H268.003ZM269.886 263.365C269.882 263.533 269.914 264.718 270.804 271.946C270.84 272.234 271.077 272.451 271.368 272.465L276.119 272.682C279.806 272.848 282.947 268.943 283.174 263.977C283.288 261.486 282.649 259.13 281.376 257.341C280.203 255.692 278.628 254.743 276.941 254.666L272.166 254.447C271.87 254.44 271.62 254.629 271.557 254.911C270.071 261.438 269.902 263.029 269.886 263.365V263.365ZM276.339 276.455C276.209 276.455 276.077 276.452 275.946 276.445L271.197 276.228C269.063 276.131 267.327 274.523 267.065 272.407C266.07 264.326 266.108 263.507 266.122 263.199C266.173 262.052 266.767 258.982 267.885 254.073C268.354 252.013 270.244 250.578 272.337 250.684L277.112 250.902C279.982 251.032 282.585 252.545 284.445 255.156C286.205 257.627 287.089 260.821 286.938 264.148C286.623 271.03 281.907 276.453 276.339 276.455" fill="#141312"></path><path d="M261.165 262.972C260.89 268.986 264.485 274.036 269.195 274.252C273.902 274.467 277.943 269.764 278.217 263.75C278.491 257.736 274.898 252.686 270.188 252.472C265.479 252.257 261.439 256.958 261.165 262.972" fill="#22A7F0"></path><path d="M278.22 263.749C278.162 264.999 277.943 266.186 277.584 267.29C277.705 261.439 274.162 256.591 269.548 256.377C265.818 256.208 262.509 259.128 261.158 263.341C261.153 263.216 261.158 263.095 261.164 262.97C261.441 256.955 265.479 252.258 270.188 252.472C274.897 252.685 278.489 257.733 278.22 263.749" fill="white"></path><path d="M265.295 270.289C263.806 268.568 262.915 265.947 263.047 263.057C263.054 262.885 263.065 262.712 263.08 262.541C263.621 263.37 264.26 264.091 264.975 264.678C264.979 264.77 264.982 264.861 264.985 264.955C264.985 264.96 264.985 264.965 264.985 264.969C264.985 264.973 264.985 264.978 264.985 264.981C265.03 266.315 265.105 267.648 265.203 268.961C265.235 269.406 265.267 269.85 265.295 270.289Z" fill="#2976B4"></path><path d="M263.047 263.058C262.82 268.025 265.617 272.203 269.28 272.369C270.955 272.445 272.62 271.644 273.94 270.11C275.371 268.443 276.222 266.154 276.336 263.665C276.449 261.175 275.811 258.817 274.537 257.029C273.364 255.38 271.789 254.43 270.103 254.353C266.412 254.187 263.274 258.092 263.047 263.058V263.058ZM269.512 276.142C269.377 276.142 269.244 276.139 269.109 276.132C263.369 275.871 258.963 269.929 259.282 262.886C259.604 255.844 264.511 250.317 270.274 250.59C273.142 250.721 275.746 252.232 277.606 254.843C279.365 257.317 280.25 260.509 280.099 263.838C279.947 267.163 278.774 270.263 276.796 272.565C274.805 274.882 272.232 276.142 269.512 276.142" fill="#141312"></path><path d="M251.007 293.462C250.989 293.462 250.972 293.462 250.954 293.461C249.914 293.433 249.095 292.566 249.123 291.526L249.72 270.005L239.596 262.888L241.054 232.463C241.103 231.423 242.001 230.64 243.025 230.671C244.065 230.721 244.866 231.604 244.817 232.643L243.458 260.997L253.543 268.086L252.889 291.631C252.861 292.653 252.024 293.462 251.007 293.462" fill="#141312"></path><path d="M361.425 248.517C361.425 248.517 367.067 253.007 367.315 259.934C367.602 267.945 362.591 271.193 362.591 271.193C362.591 271.193 340.66 282.421 305.475 274.961C305.475 274.961 295.119 261.871 306.655 254.485C306.655 254.485 343.79 259.586 361.425 248.517" fill="white"></path><path d="M350.192 272.651C351.938 269.901 353.33 266.977 354.431 263.944C358.849 262.306 362.076 258.72 363.113 254.448C363.993 255.972 364.727 257.869 364.804 260.025C365.016 265.926 361.877 268.59 361.309 269.024C360.537 269.389 356.662 271.14 350.192 272.651" fill="#B9AFBE"></path><path d="M306.95 272.703C338.763 279.181 359.414 269.922 361.31 269.024C361.877 268.59 365.017 265.926 364.805 260.025C364.668 256.206 362.468 253.198 361.048 251.641C343.854 260.963 313.244 257.82 307.284 257.098C305.308 258.551 304.174 260.27 303.828 262.332C303.132 266.483 305.805 271 306.95 272.703V272.703ZM329.31 280.05C322.136 280.05 313.978 279.331 304.956 277.419L304.069 277.23L303.506 276.521C303.266 276.216 297.622 268.98 298.874 261.503C299.499 257.772 301.661 254.7 305.3 252.37L306.079 251.872L306.996 251.997C307.356 252.046 343.438 256.841 360.089 246.389L361.596 245.443L362.988 246.55C363.255 246.764 369.539 251.854 369.825 259.846C370.161 269.172 364.211 273.138 363.957 273.301L363.735 273.429C363.042 273.784 350.478 280.05 329.31 280.05" fill="#141312"></path><path d="M264.954 205.078C263.001 205.078 261.043 205.017 259.081 204.892C254.892 204.629 250.673 204.089 246.472 203.242C241.6 202.274 236.746 200.905 231.936 199.123C230.347 198.526 228.777 197.897 227.245 197.232C227.182 197.204 227.12 197.178 227.056 197.15C227.523 194.371 227.985 191.58 228.444 188.786C228.665 188.867 228.885 188.946 229.106 189.025C233.631 190.645 238.284 191.934 242.948 192.86C247.168 193.709 251.524 194.279 255.891 194.555C257.89 194.682 259.903 194.744 261.921 194.744C265.069 194.744 268.234 194.591 271.381 194.284C273.231 194.096 275.095 193.857 276.927 193.574C300.049 189.938 320.709 178.17 335.558 161.006C336.764 163.148 338.14 165.712 339.629 168.692C324.719 187.756 303.086 200.24 279.569 203.938C277.774 204.214 275.972 204.446 274.164 204.629C271.116 204.925 268.043 205.078 264.954 205.078" fill="#B9AFBE"></path><path d="M227.056 197.15C226.259 196.804 225.469 196.449 224.689 196.082C225.147 193.354 225.601 190.612 226.052 187.868C226.684 188.12 227.342 188.373 228.031 188.633C228.17 188.686 228.306 188.735 228.444 188.786C227.985 191.58 227.523 194.371 227.056 197.15V197.15ZM339.629 168.692C338.14 165.712 336.764 163.148 335.558 161.006C336.149 160.321 336.729 159.632 337.302 158.931C338.493 161.002 339.862 163.5 341.352 166.419C340.787 167.188 340.213 167.944 339.629 168.692" fill="#141312"></path><path d="M180.833 146.576C189.047 160.135 200.682 171.699 215.082 179.846C218.019 181.505 221.061 183.024 224.212 184.386C225.744 185.052 227.314 185.678 228.905 186.278C233.712 188.062 238.567 189.429 243.443 190.397C247.642 191.243 251.858 191.784 256.05 192.047C261.114 192.37 266.155 192.269 271.128 191.784C272.941 191.601 274.745 191.371 276.537 191.093C309.329 185.936 338.449 163.702 350.815 130.367C369.043 81.2628 344.007 26.6842 294.912 8.45575C285.453 4.95254 275.785 3.03556 266.218 2.60938C265.101 2.55015 263.977 2.52054 262.854 2.51724C259.851 2.48434 256.865 2.59458 253.9 2.84634C247.046 3.43212 240.312 4.76659 233.82 6.78887C227.327 8.80293 221.063 11.5147 215.159 14.8599C213.28 15.9212 211.437 17.0467 209.63 18.2397C206.923 20.0316 204.302 21.9519 201.778 24.0285C189.18 34.3242 179.069 48.0095 173.002 64.3688C162.514 92.6149 166.348 122.668 180.833 146.576" fill="white"></path><path d="M181.048 146.445C189.404 160.237 201.215 171.711 215.206 179.626C218.17 181.299 221.234 182.823 224.312 184.154C225.728 184.77 227.259 185.388 228.995 186.043C233.72 187.796 238.597 189.178 243.492 190.15C247.591 190.975 251.821 191.528 256.067 191.796C261.029 192.112 266.091 192.023 271.103 191.532C272.903 191.351 274.718 191.118 276.497 190.843C310.305 185.528 338.692 162.32 350.577 130.278C368.727 81.3881 343.714 26.8457 294.822 8.69293C285.545 5.25719 275.918 3.29413 266.206 2.86302C265.145 2.80543 264.047 2.77418 262.853 2.76924C259.869 2.73962 256.866 2.84822 253.923 3.09834C247.152 3.6759 240.413 4.99885 233.894 7.03101C227.432 9.03519 221.171 11.7436 215.282 15.0806C213.385 16.1535 211.53 17.2872 209.768 18.4522C207.015 20.2721 204.381 22.2137 201.937 24.2228C189.004 34.795 179.08 48.7074 173.237 64.4562C163.129 91.6838 165.976 121.567 181.048 146.445V146.445ZM261.923 192.487C259.952 192.487 257.985 192.424 256.034 192.301C251.767 192.031 247.514 191.475 243.393 190.646C238.472 189.668 233.568 188.279 228.818 186.515C227.072 185.857 225.533 185.237 224.112 184.618C221.017 183.28 217.936 181.748 214.956 180.065C200.891 172.108 189.016 160.573 180.615 146.708C165.464 121.695 162.602 91.6525 172.763 64.2801C178.638 48.4474 188.614 34.461 201.616 23.8329C204.073 21.8122 206.722 19.8607 209.49 18.0293C211.262 16.8594 213.127 15.7191 215.034 14.6397C220.954 11.2862 227.248 8.56457 233.744 6.54887C240.298 4.5052 247.073 3.17568 253.878 2.59483C256.838 2.34307 259.859 2.23115 262.856 2.26406C264.059 2.269 265.163 2.29864 266.231 2.35787C275.993 2.79228 285.672 4.76354 294.998 8.21902C344.152 26.4689 369.298 81.3025 351.051 130.454C339.102 162.668 310.563 185.999 276.576 191.343C274.787 191.62 272.964 191.853 271.154 192.036C268.084 192.335 264.997 192.487 261.923 192.487" fill="#141312"></path><path d="M277.912 188.317C291.467 184.044 303.815 176.937 313.836 167.398C323.702 158.009 330.967 146.789 335.446 134.175C338.546 135.996 341.827 137.033 345.17 137.252C332.379 163.954 307.354 183.104 277.912 188.317V188.317ZM247.333 187.96C246.138 187.96 244.937 187.939 243.737 187.896C243.555 187.858 243.372 187.822 243.189 187.784C243.188 187.782 243.186 187.782 243.183 187.782C243.15 187.776 243.118 187.769 243.084 187.761C243.079 187.761 243.074 187.759 243.069 187.759C243.039 187.753 243.01 187.746 242.979 187.74C242.972 187.738 242.964 187.736 242.956 187.735C242.929 187.73 242.903 187.723 242.875 187.718C242.863 187.715 242.852 187.713 242.84 187.71C242.817 187.705 242.793 187.7 242.768 187.695C242.755 187.692 242.742 187.69 242.727 187.687C242.705 187.682 242.684 187.677 242.661 187.672C242.646 187.669 242.63 187.666 242.613 187.662C242.594 187.657 242.574 187.654 242.554 187.649C242.536 187.646 242.518 187.641 242.5 187.638C242.482 187.634 242.465 187.631 242.449 187.626C242.427 187.623 242.406 187.618 242.385 187.613C242.37 187.61 242.355 187.606 242.34 187.603C242.317 187.598 242.294 187.593 242.271 187.588C242.258 187.585 242.245 187.582 242.232 187.58C242.207 187.573 242.182 187.568 242.158 187.564C242.146 187.56 242.134 187.559 242.123 187.555C242.097 187.55 242.07 187.544 242.044 187.539C242.034 187.536 242.024 187.534 242.014 187.532C241.986 187.526 241.958 187.519 241.929 187.513C241.922 187.511 241.914 187.509 241.906 187.508C241.876 187.501 241.847 187.494 241.817 187.488C241.81 187.486 241.802 187.485 241.796 187.483C241.766 187.476 241.735 187.47 241.703 187.463C241.698 187.462 241.692 187.46 241.685 187.458C241.652 187.452 241.621 187.443 241.59 187.437C241.585 187.435 241.582 187.435 241.577 187.434C241.542 187.425 241.509 187.419 241.476 187.41C241.473 187.41 241.47 187.409 241.466 187.409C241.432 187.401 241.397 187.392 241.361 187.384C241.359 187.384 241.358 187.384 241.356 187.384C241.322 187.376 241.285 187.368 241.249 187.359L241.246 187.358C239.905 187.05 238.569 186.71 237.239 186.341C237.236 186.339 237.231 186.338 237.228 186.338C237.195 186.328 237.162 186.32 237.129 186.31C237.121 186.308 237.114 186.305 237.106 186.303C237.078 186.295 237.05 186.288 237.022 186.28C237.006 186.275 236.989 186.27 236.973 186.265C236.953 186.26 236.933 186.254 236.912 186.249C236.892 186.244 236.874 186.237 236.854 186.232C236.838 186.227 236.821 186.222 236.803 186.218C236.783 186.213 236.762 186.206 236.741 186.201C236.726 186.196 236.709 186.191 236.693 186.186C236.67 186.18 236.647 186.173 236.625 186.167C236.612 186.163 236.597 186.16 236.586 186.157C236.561 186.148 236.535 186.142 236.51 186.135C236.499 186.132 236.487 186.129 236.476 186.125C236.449 186.117 236.423 186.109 236.397 186.102C236.387 186.099 236.377 186.096 236.367 186.094C236.339 186.086 236.313 186.078 236.285 186.069C236.277 186.068 236.267 186.064 236.259 186.061C236.229 186.053 236.201 186.045 236.173 186.037C236.165 186.035 236.156 186.033 236.15 186.03C236.119 186.022 236.089 186.012 236.059 186.004C236.053 186.002 236.046 186 236.041 185.999C236.01 185.989 235.977 185.981 235.946 185.971C235.943 185.969 235.938 185.967 235.933 185.967C235.9 185.958 235.869 185.948 235.837 185.939C235.832 185.938 235.827 185.936 235.824 185.935C235.791 185.925 235.758 185.915 235.725 185.905C235.722 185.905 235.719 185.903 235.716 185.903C235.683 185.893 235.648 185.883 235.615 185.874C235.612 185.872 235.609 185.872 235.607 185.87C235.571 185.86 235.536 185.849 235.502 185.839C235.5 185.839 235.5 185.839 235.5 185.839C235.464 185.828 235.428 185.818 235.393 185.806C235.391 185.806 235.391 185.806 235.391 185.806C233.504 185.24 231.635 184.613 229.792 183.929C229.766 183.919 229.739 183.909 229.713 183.899C228.044 183.269 226.573 182.675 225.209 182.079C225.138 182.05 225.068 182.018 224.997 181.989C222.66 180.972 220.332 179.841 218.055 178.617C227.74 181.709 237.7 183.266 247.553 183.266C262.338 183.266 276.88 179.757 289.873 172.677C308.292 162.638 321.173 146.764 327.095 127.461C327.192 127.328 327.287 127.195 327.383 127.061C328.554 128.527 329.828 129.872 331.194 131.075C327.021 143.532 320.015 154.585 310.374 163.76C294.102 179.247 271.297 187.962 247.333 187.96V187.96ZM348.241 64.7704C347.17 64.5894 346.09 64.494 345.006 64.4841C344.757 61.2047 344.338 57.9532 343.752 54.738C345.445 57.9911 346.944 61.3413 348.241 64.7704Z" fill="#B9AFBE"></path><path d="M182.498 145.568C190.702 159.112 202.301 170.378 216.041 178.151C218.952 179.795 221.961 181.293 224.985 182.597C226.378 183.205 227.883 183.812 229.593 184.457C234.225 186.176 239.015 187.534 243.821 188.488C247.851 189.298 252.004 189.842 256.172 190.104C261.049 190.413 266.017 190.328 270.939 189.846C272.704 189.668 274.489 189.439 276.239 189.169C309.438 183.948 337.317 161.157 348.99 129.689C366.813 81.6743 342.25 28.1094 294.233 10.2807C285.122 6.90589 275.666 4.97905 266.13 4.55452C265.081 4.49857 264.013 4.46895 262.844 4.46402C259.912 4.43604 256.955 4.54135 254.066 4.78652C247.418 5.35421 240.8 6.65247 234.398 8.64842C228.051 10.6181 221.9 13.2771 216.118 16.5533C214.254 17.608 212.432 18.722 210.703 19.8656C207.999 21.6526 205.413 23.5597 203.014 25.5326C190.309 35.9155 180.564 49.5778 174.827 65.0452C164.9 91.7857 167.695 121.134 182.498 145.568V145.568ZM261.921 194.18C259.916 194.18 257.913 194.117 255.927 193.991C251.584 193.718 247.254 193.15 243.059 192.306C238.054 191.312 233.063 189.898 228.229 188.105C226.447 187.432 224.883 186.802 223.435 186.17C220.289 184.812 217.155 183.254 214.124 181.541C199.803 173.44 187.717 161.698 179.166 147.585C163.744 122.128 160.832 91.5504 171.175 63.691C177.153 47.5753 187.309 33.3387 200.545 22.5214C203.043 20.4662 205.738 18.4785 208.555 16.6174C210.359 15.4245 212.258 14.2628 214.199 13.1652C220.224 9.75253 226.631 6.98157 233.242 4.92967C239.912 2.85144 246.806 1.49886 253.735 0.906496C256.75 0.649803 259.828 0.534646 262.874 0.570846C264.093 0.575783 265.227 0.607027 266.323 0.666264C276.243 1.10725 286.097 3.11472 295.588 6.63109C345.618 25.2051 371.21 81.0178 352.641 131.043C340.478 163.831 311.432 187.577 276.838 193.017C275.018 193.298 273.163 193.535 271.324 193.721C268.196 194.027 265.051 194.18 261.921 194.18Z" fill="#141312"></path><path d="M182.98 145.275C191.135 158.737 202.663 169.934 216.319 177.659C219.212 179.293 222.203 180.781 225.21 182.079C226.595 182.683 228.091 183.287 229.792 183.929C234.393 185.637 239.155 186.984 243.932 187.934C247.937 188.74 252.065 189.28 256.209 189.541C261.056 189.849 265.992 189.764 270.884 189.285C272.637 189.107 274.412 188.88 276.152 188.612C309.148 183.424 336.858 160.77 348.46 129.493C366.175 81.7698 341.761 28.5307 294.038 10.8106C284.981 7.45549 275.584 5.54016 266.106 5.11892C265.061 5.06297 264.001 5.03335 262.843 5.02842C259.909 4.99715 256.985 5.10411 254.114 5.34928C247.507 5.91368 240.93 7.20375 234.566 9.18654C228.257 11.1446 222.144 13.7889 216.396 17.0453C214.544 18.0935 212.734 19.2009 211.014 20.3362C208.327 22.1133 205.757 24.0089 203.373 25.9687C190.745 36.2907 181.058 49.8691 175.357 65.2427C165.489 91.8187 168.268 120.99 182.98 145.275V145.275ZM261.922 194.744C259.903 194.744 257.89 194.682 255.891 194.555C251.524 194.279 247.168 193.709 242.948 192.86C237.916 191.86 232.894 190.438 228.032 188.633C226.24 187.958 224.667 187.323 223.21 186.688C220.048 185.322 216.895 183.754 213.846 182.033C199.443 173.883 187.285 162.074 178.684 147.878C163.172 122.273 160.243 91.5159 170.646 63.4952C176.66 47.2857 186.875 32.9652 200.189 22.0837C202.7 20.0186 205.411 18.0194 208.243 16.1452C210.06 14.9457 211.97 13.7774 213.922 12.6733C219.98 9.24084 226.426 6.45506 233.075 4.38999C239.782 2.30025 246.719 0.939441 253.688 0.343781C256.72 0.0854427 259.819 -0.0247973 262.881 0.00482116C264.107 0.00975756 265.247 0.0426734 266.353 0.10191C276.328 0.546187 286.237 2.56517 295.784 6.10128C346.107 24.7839 371.849 80.9224 353.169 131.241C340.937 164.219 311.722 188.103 276.927 193.574C275.095 193.857 273.231 194.096 271.381 194.284C268.234 194.591 265.069 194.744 261.922 194.744" fill="#141312"></path><path d="M195.986 165.577C253.354 201.672 327.508 170.376 328.257 103.248C328.767 57.5779 284.443 21.8186 240.549 24.1387C208.602 25.8269 178.151 41.4507 167.217 91.7494C167.217 91.7494 165.815 114.765 172.757 129.705C179.697 144.648 188.971 158.007 188.971 158.007L195.986 165.577Z" fill="#141312"></path><path d="M328.255 103.248C327.508 170.375 253.352 201.67 195.984 165.578L194.564 164.043C256.152 171.991 315.233 132.49 317.252 64.6338C324.303 76.0057 328.41 89.1546 328.255 103.248Z" fill="#220F2D"></path><path d="M243.738 187.896C269.005 188.814 293.291 180.019 310.374 163.76C326.689 148.233 335.454 127.338 335.726 103.335C335.971 81.3748 326.638 60.1959 309.441 43.7018C290.612 25.6395 264.572 15.6334 239.785 16.9481C225.927 17.682 213.609 20.7738 203.165 26.138C190.642 36.4354 181.027 49.9513 175.357 65.2426C165.489 91.8186 168.268 120.989 182.98 145.275C191.135 158.736 202.663 169.934 216.319 177.659C219.212 179.293 222.203 180.781 225.21 182.079C226.595 182.683 228.091 183.287 229.792 183.929C234.33 185.612 239.025 186.948 243.738 187.896V187.896ZM247.318 192.984C245.997 192.984 244.674 192.959 243.348 192.908L242.954 192.862C237.916 191.86 232.894 190.438 228.032 188.633C226.24 187.958 224.667 187.323 223.21 186.688C220.048 185.322 216.895 183.754 213.846 182.033C199.443 173.883 187.285 162.073 178.684 147.878C163.172 122.273 160.243 91.5158 170.646 63.4951C176.66 47.2856 186.875 32.9651 200.189 22.0836L200.389 21.9174L200.621 21.7973C211.753 16.0283 224.841 12.7077 239.52 11.9327C265.685 10.5505 293.108 21.0716 312.92 40.0768C331.127 57.5418 341.009 80.0271 340.748 103.391C340.461 128.782 331.156 150.916 313.836 167.398C296.633 183.772 272.574 192.984 247.318 192.984" fill="#141312"></path><path d="M197.602 163.625C225.887 181.291 260.294 183.078 287.469 168.265C311.48 155.181 325.431 131.471 325.746 103.22C325.963 83.759 317.688 64.9891 302.446 50.3691C285.749 34.3538 262.667 25.4864 240.682 26.6464C202.651 28.6555 178.776 50.6735 169.713 92.0867C169.606 94.2669 168.765 115.155 175.034 128.647C181.423 142.4 189.934 154.968 190.937 156.434L197.602 163.625ZM247.553 183.265C229.496 183.265 211.075 178.038 194.648 167.701L194.368 167.526L186.908 159.439C186.524 158.886 177.431 145.729 170.478 130.763C163.351 115.423 164.649 92.5622 164.709 91.5963L164.761 91.2162C174.331 47.1901 199.787 23.7767 240.417 21.6294C263.758 20.4068 288.244 29.786 305.923 46.7442C322.178 62.335 331.001 82.4113 330.769 103.276C330.434 133.399 315.527 158.695 289.873 172.677C276.88 179.757 262.338 183.265 247.553 183.265" fill="#141312"></path><path d="M370.064 97.0495C372.107 115.645 362.84 132.439 349.365 134.56C335.889 136.681 323.308 123.324 321.264 104.729C319.22 86.1335 328.487 69.3398 341.964 67.2188C355.439 65.0978 368.02 78.4541 370.064 97.0495Z" fill="white"></path><path d="M346.546 132.269C342.847 132.269 339.181 130.946 335.821 128.378C330.352 124.198 326.278 117.127 324.492 108.941C325.241 109.035 325.998 109.084 326.76 109.084C327.688 109.084 328.624 109.012 329.565 108.866C330.995 108.64 332.453 108.258 333.911 107.735C334.304 110.384 334.99 112.936 335.933 115.309C336.037 115.62 336.145 115.93 336.259 116.237C338.314 121.773 341.758 125.672 345.786 127.629C346.616 128.122 347.476 128.547 348.37 128.897C350.287 129.649 352.232 130.025 354.167 130.025C354.359 130.025 354.552 130.021 354.744 130.013C352.949 131.05 351.016 131.757 348.973 132.078C348.166 132.207 347.354 132.269 346.546 132.269V132.269ZM358.948 76.6078C358.282 76.3659 357.614 76.1701 356.942 76.0187C356.951 75.5432 356.949 75.0643 356.934 74.5839C357.632 75.2108 358.305 75.8871 358.948 76.6078Z" fill="#B9AFBE"></path><path d="M344.783 69.5092C343.973 69.5092 343.162 69.5717 342.354 69.7001C330.204 71.6104 321.864 87.2029 323.76 104.454C324.866 114.506 329.374 123.449 335.821 128.377C339.917 131.509 344.467 132.789 348.974 132.078C361.124 130.166 369.463 114.575 367.567 97.3242C366.463 87.272 361.955 78.3289 355.508 73.4007C352.148 70.8321 348.48 69.5092 344.783 69.5092ZM346.512 137.296C341.722 137.296 337.026 135.622 332.771 132.369C325.142 126.538 320.038 116.563 318.768 105.004C316.583 85.123 326.812 67.0607 341.572 64.7373C347.468 63.8093 353.344 65.4251 358.558 69.4105C366.187 75.2403 371.291 85.2152 372.56 96.7746C374.745 116.655 364.515 134.717 349.755 137.041C348.672 137.21 347.59 137.296 346.512 137.296" fill="#141312"></path><path d="M373.211 110.422C370.228 124.683 359.147 132.845 348.465 128.652C337.783 124.46 331.541 109.501 334.525 95.2411C337.509 80.9798 348.588 72.8183 359.271 77.011C369.955 81.2036 376.196 96.1626 373.211 110.422Z" fill="white"></path><path d="M353.573 76.1652C351.093 76.1652 348.631 76.8036 346.28 78.0739C340.624 81.1296 336.432 87.407 334.781 95.2954C331.828 109.412 338.01 124.267 348.561 128.409C352.873 130.1 357.331 129.817 361.456 127.589C367.113 124.534 371.304 118.258 372.955 110.37C375.908 96.2514 369.728 81.3961 359.175 77.2545C357.323 76.5288 355.442 76.1652 353.573 76.1652ZM354.167 130.025C352.232 130.025 350.287 129.649 348.37 128.898C337.589 124.667 331.263 109.545 334.268 95.1868C335.95 87.1471 340.238 80.7413 346.03 77.6116C350.295 75.3096 354.905 75.015 359.368 76.7658C370.147 80.9963 376.473 96.1198 373.468 110.476C371.786 118.516 367.498 124.922 361.706 128.052C359.276 129.365 356.73 130.025 354.167 130.025Z" fill="#141312"></path><path d="M345.786 127.629C341.758 125.672 338.314 121.773 336.258 116.237C336.145 115.93 336.036 115.62 335.933 115.309C338.05 120.639 341.466 125.059 345.786 127.629Z" fill="#8C7B94"></path><path d="M351.961 129.07C351.375 129.07 350.795 129.032 350.219 128.96C349.664 128.809 349.111 128.624 348.56 128.409C341.211 125.524 335.982 117.443 334.483 108.035C334.302 105.723 334.366 103.385 334.657 101.091C337.911 108.003 343.522 111.839 349.48 111.839C352.621 111.839 355.859 110.773 358.898 108.527C364.587 104.327 368.264 96.9639 369.26 89.0986C369.578 89.7617 369.867 90.466 370.139 91.19C374.655 103.365 370.734 118.842 361.377 125.758C358.339 128.004 355.102 129.07 351.961 129.07" fill="#B9AFBE"></path><path d="M350.219 128.96C348.694 128.766 347.203 128.318 345.786 127.629C341.467 125.059 338.051 120.639 335.933 115.309C335.153 112.965 334.678 110.513 334.483 108.035C335.982 117.444 341.212 125.524 348.56 128.409C349.112 128.625 349.665 128.809 350.219 128.96Z" fill="#141312"></path><path d="M353.039 77.0028C352.49 77.0028 351.942 77.0472 351.396 77.1377C342.686 78.5791 336.547 91.2953 337.988 104.905C338.885 113.368 342.456 120.731 347.54 124.601C350.344 126.735 353.406 127.604 356.394 127.109C365.104 125.667 371.243 112.951 369.802 99.3416C368.905 90.879 365.334 83.5155 360.25 79.6454C357.959 77.9012 355.494 77.0028 353.039 77.0028V77.0028ZM354.718 132.271C351.175 132.271 347.685 131.023 344.498 128.6C338.334 123.907 334.033 115.247 332.993 105.435C331.222 88.7135 338.946 74.1067 350.576 72.1816C354.965 71.4575 359.36 72.6554 363.292 75.6469C369.456 80.3398 373.757 88.9999 374.797 98.8135C376.57 115.533 368.846 130.14 357.216 132.065C356.383 132.203 355.549 132.271 354.718 132.271Z" fill="#141312"></path><path d="M193.812 137.971C182.946 129.199 176.446 118.836 175.258 103.901C175.146 102.429 175.083 100.905 175.069 99.34C175.064 98.9797 175.067 98.6226 175.077 98.2623L175.08 98.2409C175.273 95.0684 175.684 90.9103 176.54 86.2569C179.112 72.226 185.689 53.698 202.4 44.151C215.685 36.5588 229.055 34.2453 239.925 34.2453C254.62 34.2453 264.753 38.4725 263.978 39.6079C263.978 39.6079 221.186 44.6167 198.875 70.5822C198.852 70.6101 198.829 70.6381 198.806 70.6644C194.115 76.134 190.989 82.7751 189.707 89.8654C188.01 99.2413 188.214 105.952 188.622 111.852C189.87 129.796 193.812 137.971 193.812 137.971" fill="#C3BAC7"></path><path d="M300.178 96.1362C294.625 96.1362 289.159 92.0275 286.982 85.6859C284.331 77.9703 287.549 69.8713 294.171 67.5972C295.351 67.1924 296.558 66.9999 297.763 66.9999C303.315 66.9999 308.781 71.1087 310.96 77.4503C313.609 85.1659 310.39 93.2649 303.769 95.5389C302.589 95.9437 301.381 96.1362 300.178 96.1362Z" fill="#C3BAC7"></path><path d="M304.939 111.707C304.096 111.052 303.381 110.152 302.9 109.063C301.539 105.981 302.582 102.537 305.227 101.37C305.824 101.107 306.451 100.982 307.081 100.982C307.968 100.982 308.858 101.229 309.673 101.686C308.269 105.153 306.686 108.494 304.939 111.707Z" fill="#C3BAC7"></path><path d="M308.297 112.92C307.122 112.92 305.942 112.486 304.938 111.707C306.686 108.494 308.269 105.153 309.673 101.686C310.842 102.343 311.858 103.431 312.478 104.839C313.837 107.921 312.796 111.365 310.15 112.532C309.552 112.795 308.925 112.92 308.297 112.92" fill="#BCB7C0"></path><path d="M490.573 279.767C458.41 349.492 363.853 400 252.207 400C140.56 400 46.0031 349.492 13.8413 279.767H490.573" fill="#141312"></path><path d="M327.05 357.438L324.083 357.897C323.489 357.988 323.022 358.455 322.932 359.049L322.473 362.016L322.015 359.049C321.923 358.455 321.457 357.988 320.863 357.897L317.896 357.438L320.863 356.981C321.457 356.889 321.923 356.423 322.015 355.827L322.473 352.862L322.932 355.827C323.022 356.423 323.489 356.889 324.083 356.981L327.05 357.438Z" fill="#FFE266"></path><path d="M250.537 344.275L247.57 344.734C246.976 344.824 246.508 345.291 246.418 345.886L245.959 348.852L245.501 345.886C245.409 345.291 244.944 344.824 244.35 344.734L241.383 344.275L244.35 343.817C244.944 343.725 245.409 343.259 245.501 342.664L245.959 339.699L246.418 342.664C246.508 343.259 246.976 343.725 247.57 343.817L250.537 344.275Z" fill="#FFE266"></path><path d="M278.983 373.617L275.998 374.077C275.399 374.169 274.931 374.64 274.838 375.237L274.378 378.222L273.917 375.237C273.825 374.64 273.354 374.169 272.757 374.077L269.772 373.617L272.757 373.156C273.354 373.064 273.825 372.595 273.917 371.996L274.378 369.011L274.838 371.996C274.931 372.595 275.399 373.064 275.998 373.156L278.983 373.617Z" fill="#FFE266"></path><path d="M414.221 339.926L410.197 340.547C409.39 340.673 408.757 341.304 408.632 342.111L408.011 346.135L407.389 342.111C407.264 341.304 406.633 340.673 405.826 340.547L401.8 339.926L405.826 339.304C406.633 339.18 407.264 338.547 407.389 337.74L408.011 333.716L408.632 337.74C408.757 338.547 409.39 339.18 410.197 339.304L414.221 339.926Z" fill="#FFE266"></path><path d="M52.1386 292.207L48.6466 292.747C47.947 292.854 47.398 293.403 47.2901 294.103L46.7509 297.594L46.2117 294.103C46.1037 293.403 45.5546 292.854 44.8551 292.747L41.3633 292.207L44.8551 291.667C45.5546 291.56 46.1037 291.011 46.2118 290.311L46.7509 286.82L47.2901 290.311C47.398 291.011 47.947 291.56 48.6466 291.667L52.1386 292.207Z" fill="#FFE266"></path><path d="M202.859 332.896L199.076 333.48C198.319 333.597 197.724 334.191 197.607 334.95L197.023 338.731L196.438 334.95C196.322 334.191 195.728 333.597 194.969 333.48L191.186 332.896L194.969 332.312C195.728 332.194 196.322 331.6 196.438 330.843L197.023 327.06L197.607 330.843C197.724 331.6 198.319 332.194 199.076 332.312L202.859 332.896Z" fill="#FFE266"></path><path d="M369.629 358.424L366.028 358.98C365.306 359.09 364.74 359.656 364.63 360.379L364.074 363.979L363.517 360.379C363.406 359.656 362.84 359.09 362.119 358.98L358.519 358.424L362.119 357.868C362.84 357.756 363.406 357.19 363.517 356.469L364.074 352.869L364.63 356.469C364.74 357.19 365.306 357.756 366.028 357.868L369.629 358.424Z" fill="#FFE266"></path><path d="M150.138 332.014L147.173 332.472C146.578 332.564 146.112 333.03 146.02 333.624L145.562 336.59L145.105 333.624C145.013 333.03 144.547 332.564 143.951 332.472L140.986 332.014L143.951 331.555C144.547 331.463 145.013 330.997 145.105 330.403L145.562 327.437L146.02 330.403C146.112 330.997 146.578 331.463 147.173 331.555L150.138 332.014Z" fill="#FFE266"></path><path d="M157.905 368.711L155.932 366.449C155.537 365.996 154.893 365.852 154.342 366.09L151.589 367.288L153.852 365.317C154.306 364.922 154.451 364.279 154.211 363.727L153.013 360.974L154.986 363.237C155.381 363.691 156.024 363.836 156.575 363.596L159.326 362.398L157.064 364.369C156.611 364.766 156.467 365.409 156.707 365.96L157.905 368.711" fill="#FFE266"></path><path d="M214.132 372.35L210.698 372.879C210.01 372.986 209.47 373.526 209.365 374.214L208.833 377.648L208.304 374.214C208.198 373.526 207.659 372.986 206.971 372.879L203.537 372.35L206.971 371.82C207.659 371.713 208.198 371.173 208.304 370.485L208.833 367.053L209.365 370.485C209.47 371.173 210.01 371.713 210.698 371.82L214.132 372.35Z" fill="#FFE266"></path><path d="M105.811 343.325L102.844 343.784C102.25 343.876 101.785 344.342 101.692 344.936L101.235 347.903L100.776 344.936C100.685 344.342 100.218 343.876 99.624 343.784L96.6572 343.325L99.624 342.868C100.218 342.776 100.685 342.31 100.776 341.716L101.235 338.749L101.692 341.716C101.785 342.31 102.25 342.776 102.844 342.868L105.811 343.325Z" fill="#FFE266"></path><path d="M458.29 295.526L454.78 296.069C454.078 296.178 453.525 296.729 453.416 297.433L452.875 300.943L452.332 297.433C452.223 296.729 451.672 296.178 450.969 296.069L447.458 295.526L450.969 294.985C451.672 294.876 452.223 294.325 452.332 293.621L452.875 290.111L453.416 293.621C453.525 294.325 454.078 294.876 454.78 294.985L458.29 295.526Z" fill="#FFE266"></path><path d="M387.178 340.133H274.241L279.961 325.898L288.463 304.755L361.295 305.522L378.036 327.907L387.178 340.133Z" fill="white"></path><path d="M277.956 337.619H382.164L360.029 308.023L290.154 307.286L277.956 337.619ZM392.193 342.642H270.521L286.774 302.226L362.565 303.026L392.193 342.642" fill="#141312"></path><path d="M371.708 332.022C368.223 332.032 364.74 331.965 361.256 331.939L350.808 331.725C347.326 331.674 343.837 331.522 340.37 331.438C336.894 331.372 333.415 331.335 329.935 331.333C322.975 331.231 316.011 331.251 309.047 331.193L298.6 331.101C295.117 331.034 291.633 331.012 288.15 330.92C291.63 330.732 295.112 330.634 298.594 330.497L309.041 330.244C316.008 330.105 322.975 330.094 329.943 330.099C333.428 330.138 336.915 330.214 340.4 330.318C343.893 330.458 347.365 330.581 350.846 330.78L361.278 331.336C364.755 331.567 368.232 331.754 371.708 332.022Z" fill="#141312"></path><path d="M367.052 324.343C363.85 324.376 360.648 324.33 357.446 324.325L347.838 324.177C341.432 324.07 335.041 323.802 328.642 323.616L309.456 322.966C306.257 322.86 303.066 322.767 299.867 322.837C298.755 322.834 297.643 322.836 296.529 322.837C294.442 322.841 292.353 322.844 290.261 322.813C296.646 322.411 303.056 321.942 309.47 322.016C315.88 322.011 322.282 322.184 328.683 322.383C335.082 322.6 341.483 322.902 347.874 323.232L357.462 323.723C360.658 323.932 363.855 324.098 367.052 324.343" fill="#141312"></path><path d="M362.241 317.718C359.297 317.702 356.362 317.606 353.424 317.554L344.623 317.259L327.015 316.726L309.41 316.106C306.476 315.994 303.545 315.905 300.611 315.87C297.668 315.765 294.727 315.701 291.798 315.559C297.678 315.337 303.537 315.135 309.428 315.156C315.307 315.155 321.181 315.313 327.056 315.494C332.927 315.711 338.798 315.928 344.664 316.316L353.461 316.953C356.388 317.21 359.318 317.424 362.241 317.718" fill="#141312"></path><path d="M357.933 311.357C352.612 311.9 347.256 311.689 341.926 311.61C336.595 311.504 331.267 311.323 325.939 311.163L309.958 310.582C307.295 310.472 304.631 310.375 301.969 310.32C299.323 310.228 296.601 310.245 294.005 310.069L301.967 309.717C304.638 309.647 307.307 309.639 309.976 309.633C315.314 309.628 320.647 309.768 325.978 309.929C331.309 310.121 336.639 310.335 341.964 310.666C344.626 310.832 347.284 310.988 349.946 311.114C352.607 311.258 355.269 311.425 357.933 311.357" fill="#141312"></path><path d="M443.647 322.444H330.709L344.939 287.067L355.827 287.18L417.764 287.838L443.647 322.444Z" fill="white"></path><path d="M264.426 285.562L223.815 322.217C223.815 322.217 260.009 320.353 276.808 320.4C290.505 320.44 336.319 323.948 336.319 323.948L346.974 287.068L264.426 285.562" fill="white"></path><path d="M336.952 329.413C336.952 329.413 300.131 326.589 282.638 325.977L283.797 323.099C301.681 323.823 335.732 326.423 336.129 326.452L338.166 326.609L338.643 324.955H372.693L374.9 327.907H337.385L336.952 329.413Z" fill="#B9AFBE"></path><path d="M378.036 327.907H374.9L372.693 324.955H375.829L378.036 327.907ZM282.638 325.977C281.685 325.944 280.79 325.916 279.961 325.898L281.126 323C281.967 323.028 282.86 323.061 283.797 323.099L282.638 325.977" fill="#141312"></path><path d="M443.647 322.444H330.709L344.939 287.067L355.827 287.18L417.764 287.838L443.647 322.444Z" fill="white"></path><path d="M334.425 319.931H438.633L416.498 290.334L346.625 289.597L334.425 319.931V319.931ZM448.664 324.955H326.991L343.245 284.539L419.034 285.337L448.664 324.955" fill="#141312"></path><path d="M428.178 314.334C424.693 314.345 421.209 314.276 417.726 314.25L407.277 314.037C403.797 313.986 400.308 313.833 396.84 313.751C393.363 313.684 389.884 313.646 386.404 313.644C379.444 313.542 372.48 313.564 365.517 313.506L355.07 313.414C351.586 313.345 348.104 313.323 344.619 313.231C348.099 313.044 351.583 312.945 355.063 312.808L365.512 312.557C372.477 312.417 379.444 312.407 386.414 312.412C389.897 312.451 393.384 312.527 396.871 312.631C400.364 312.769 403.836 312.894 407.315 313.093L417.747 313.649C421.224 313.878 424.702 314.067 428.178 314.334Z" fill="#141312"></path><path d="M423.521 306.654C420.319 306.687 417.117 306.641 413.915 306.636L404.307 306.49C397.901 306.383 391.51 306.115 385.111 305.929L365.925 305.279C362.726 305.173 359.537 305.078 356.337 305.15C355.219 305.147 354.101 305.149 352.983 305.15C350.9 305.154 348.817 305.155 346.73 305.126C353.117 304.724 359.527 304.254 365.94 304.329C372.349 304.324 378.751 304.497 385.152 304.694C391.553 304.912 397.952 305.213 404.343 305.545L413.933 306.036C417.129 306.243 420.326 306.409 423.521 306.654" fill="#141312"></path><path d="M418.712 300.854C415.766 300.838 412.831 300.742 409.894 300.688L401.092 300.395L383.484 299.862L365.881 299.24C362.947 299.13 360.016 299.041 357.081 299.006C354.137 298.901 351.198 298.837 348.268 298.695C354.147 298.473 360.008 298.271 365.897 298.292C371.778 298.289 377.652 298.448 383.525 298.629C389.398 298.845 395.267 299.064 401.135 299.452L409.93 300.087C412.859 300.346 415.789 300.559 418.712 300.854" fill="#141312"></path><path d="M414.402 295.314C409.081 295.858 403.725 295.648 398.395 295.567C393.064 295.462 387.736 295.281 382.408 295.119L366.427 294.539C363.764 294.43 361.1 294.333 358.44 294.279C355.794 294.186 353.07 294.201 350.476 294.027L358.436 293.675C361.109 293.604 363.778 293.596 366.446 293.591C371.783 293.586 377.116 293.726 382.449 293.887C387.778 294.079 393.11 294.292 398.434 294.624C401.095 294.79 403.754 294.947 406.415 295.072C409.076 295.217 411.738 295.381 414.402 295.314" fill="#141312"></path><path d="M2.18209 277.543L17.6553 277.263L33.1287 277.051L64.0752 276.634L125.968 276.116C146.599 275.907 167.231 275.892 187.862 275.785L249.755 275.683L311.648 275.782C332.278 275.892 352.911 275.904 373.542 276.114L435.434 276.633L466.381 277.051L481.855 277.261L497.327 277.543C498.555 277.564 499.532 278.578 499.509 279.803C499.488 281.003 498.517 281.962 497.327 281.985L481.855 282.267L466.381 282.477L435.434 282.895L373.542 283.415C352.911 283.624 332.278 283.636 311.648 283.746L249.755 283.845L187.862 283.743C167.231 283.636 146.599 283.621 125.968 283.412L64.0752 282.894L33.1287 282.476L17.6553 282.265L2.18209 281.985C0.9549 281.964 -0.0216831 280.95 0.00036614 279.724C0.0220863 278.525 0.993404 277.566 2.18209 277.543" fill="#141312"></path><path d="M211.412 316.846L246.941 283.818C247.083 283.685 247.163 283.501 247.163 283.307V277.371C247.163 276.97 246.824 276.651 246.423 276.675L132.779 283.611L80.0352 316.846H211.412" fill="#3E8DFF"></path><path d="M211.281 313.541L210.343 309.736L244.478 282.678L211.281 313.541Z" fill="#4C6ACA"></path><path d="M88.7326 314.335H210.427L244.652 282.517V279.3L133.573 286.078L88.7326 314.335V314.335ZM212.401 319.359H71.3379L131.984 281.143L246.27 274.168C247.155 274.12 248.022 274.431 248.666 275.035C249.307 275.639 249.676 276.491 249.676 277.373V283.307C249.676 284.192 249.304 285.048 248.656 285.653L212.401 319.359" fill="#141312"></path><path d="M211.412 302.886L247.163 276.631H132.779L80.0352 302.886H211.412" fill="#3E8DFF"></path><path d="M202.191 299.571L225.448 282.491H151.038L116.729 299.571H202.191Z" fill="white"></path><path d="M87.0328 301.241H210.874L242.143 278.276H133.165L87.0328 301.241V301.241ZM211.952 304.531H73.0371L132.392 274.985H245.034C246.049 274.985 246.944 275.634 247.26 276.598C247.576 277.564 247.239 278.615 246.421 279.218L211.952 304.531Z" fill="#141312"></path><path d="M208.026 318.4H58.5756C57.6086 318.4 56.7232 318.005 56.0826 317.345C55.662 316.919 55.3481 316.366 55.1911 315.744L30.0556 213.731C28.9692 209.33 32.297 205.08 36.8308 205.08H176.354C180.951 205.08 184.976 208.074 186.339 212.413C186.408 212.621 186.47 212.835 186.52 213.047L211.411 314.074C211.957 316.272 210.287 318.4 208.026 318.4" fill="#3E8DFF"></path><path d="M208.026 318.4H62.7319L62.5249 317.56C64.0232 317.588 65.6437 317.607 67.3734 317.607C93.083 317.607 142.732 313.723 168.498 285.925C187.878 265.014 188.282 232.312 186.366 212.695C186.386 212.696 186.406 212.7 186.426 212.703C186.407 212.639 186.389 212.576 186.371 212.514C186.427 212.69 186.478 212.868 186.519 213.047L211.41 314.074C211.481 314.357 211.514 314.64 211.516 314.916C211.517 316.785 209.995 318.4 208.026 318.4V318.4ZM58.5542 318.4C58.5519 318.4 58.5497 318.4 58.5474 318.4C58.5497 318.4 58.552 318.4 58.5542 318.4ZM58.5335 318.4C58.5307 318.4 58.5277 318.4 58.5249 318.4C58.5279 318.4 58.5307 318.4 58.5335 318.4ZM58.5127 318.4C58.5096 318.4 58.5065 318.4 58.5035 318.4C58.5065 318.4 58.5098 318.4 58.5127 318.4ZM58.4927 318.4C58.489 318.4 58.4854 318.4 58.482 318.398C58.4856 318.4 58.489 318.4 58.4927 318.4ZM58.4752 318.398C58.4591 318.398 58.443 318.398 58.4268 318.396C58.443 318.398 58.4591 318.398 58.4752 318.398ZM58.4244 318.396C58.4184 318.396 58.4125 318.396 58.4066 318.396C58.4125 318.396 58.4184 318.396 58.4244 318.396ZM58.4064 318.396C58.0828 318.38 57.7698 318.321 57.4733 318.222C57.77 318.321 58.0833 318.38 58.4064 318.396ZM57.4731 318.222C57.4693 318.22 57.4657 318.219 57.4619 318.217C57.4657 318.219 57.4693 318.22 57.4731 318.222ZM57.4504 318.214C57.4489 318.214 57.4476 318.212 57.4463 318.212C57.4478 318.212 57.4489 318.214 57.4504 318.214Z" fill="#4C6ACA"></path><path d="M62.7321 318.4H58.5755C58.5684 318.4 58.5615 318.4 58.5544 318.4C58.5615 318.4 58.5684 318.4 58.5755 318.4H62.7321ZM58.5477 318.4C58.5431 318.4 58.5383 318.4 58.5337 318.4C58.5383 318.4 58.5431 318.4 58.5477 318.4ZM58.5252 318.4C58.521 318.4 58.5171 318.4 58.513 318.4C58.5171 318.4 58.521 318.4 58.5252 318.4ZM58.5038 318.4C58.5001 318.4 58.4965 318.4 58.4929 318.4C58.4965 318.4 58.5001 318.4 58.5038 318.4ZM58.4822 318.398C58.4799 318.398 58.4778 318.398 58.4755 318.398C58.4778 318.398 58.4799 318.398 58.4822 318.398ZM58.4271 318.396C58.4264 318.396 58.4254 318.396 58.4246 318.396C58.4254 318.396 58.4264 318.396 58.4271 318.396ZM58.4068 318.396H58.4067C58.4067 318.396 58.4067 318.396 58.4068 318.396ZM57.4735 318.222H57.4734H57.4735ZM57.4622 318.217C57.4584 318.217 57.4544 318.215 57.4507 318.214C57.4544 318.215 57.4584 318.217 57.4622 318.217ZM57.4465 318.212C56.3467 317.835 55.4802 316.92 55.1909 315.744L49.4922 292.617L55.1909 315.744C55.3479 316.366 55.6619 316.919 56.0825 317.345C56.4624 317.737 56.9284 318.034 57.4465 318.212Z" fill="#7D6A86"></path><path d="M186.371 212.514C186.36 212.479 186.35 212.446 186.339 212.413C185.05 208.311 181.382 205.41 177.103 205.106C181.419 205.413 185.114 208.357 186.371 212.514V212.514ZM177.103 205.106C177.094 205.106 177.086 205.104 177.078 205.104C177.086 205.104 177.094 205.106 177.103 205.106ZM177.075 205.104C177.068 205.104 177.06 205.103 177.052 205.103C177.06 205.103 177.068 205.104 177.075 205.104ZM177.048 205.103C177.04 205.101 177.033 205.101 177.025 205.101C177.033 205.101 177.04 205.103 177.048 205.103ZM177.02 205.101C177.014 205.099 177.007 205.099 176.999 205.099C177.007 205.099 177.014 205.099 177.02 205.101ZM176.994 205.099C176.987 205.098 176.979 205.098 176.973 205.098C176.979 205.098 176.987 205.098 176.994 205.099ZM176.966 205.098C176.959 205.096 176.953 205.096 176.946 205.096C176.953 205.096 176.959 205.096 176.966 205.098ZM176.94 205.096C176.933 205.096 176.926 205.094 176.92 205.094C176.926 205.094 176.933 205.096 176.94 205.096ZM176.912 205.094C176.907 205.094 176.9 205.093 176.894 205.093C176.9 205.093 176.907 205.094 176.912 205.094ZM176.885 205.093C176.879 205.093 176.872 205.093 176.867 205.091C176.874 205.093 176.879 205.093 176.885 205.093ZM176.857 205.091C176.852 205.091 176.846 205.091 176.839 205.091C176.846 205.091 176.852 205.091 176.857 205.091ZM176.831 205.089C176.826 205.089 176.82 205.089 176.813 205.089C176.82 205.089 176.824 205.089 176.831 205.089ZM176.803 205.089C176.798 205.089 176.792 205.088 176.787 205.088C176.792 205.088 176.798 205.089 176.803 205.089ZM176.777 205.088C176.772 205.088 176.765 205.088 176.76 205.088C176.765 205.088 176.772 205.088 176.777 205.088ZM176.749 205.086C176.744 205.086 176.739 205.086 176.734 205.086C176.739 205.086 176.744 205.086 176.749 205.086ZM176.721 205.086C176.716 205.086 176.711 205.086 176.706 205.084C176.711 205.086 176.716 205.086 176.721 205.086ZM176.694 205.084C176.69 205.084 176.685 205.084 176.68 205.084C176.685 205.084 176.69 205.084 176.694 205.084ZM176.668 205.084C176.663 205.084 176.658 205.084 176.652 205.083C176.658 205.084 176.663 205.084 176.668 205.084ZM176.64 205.083C176.635 205.083 176.63 205.083 176.625 205.083C176.63 205.083 176.635 205.083 176.64 205.083ZM176.612 205.083C176.609 205.083 176.602 205.083 176.599 205.083C176.604 205.083 176.609 205.083 176.612 205.083ZM176.586 205.081C176.581 205.081 176.576 205.081 176.571 205.081C176.576 205.081 176.581 205.081 176.586 205.081ZM176.56 205.081C176.555 205.081 176.55 205.081 176.545 205.081C176.55 205.081 176.555 205.081 176.56 205.081ZM176.532 205.081C176.527 205.081 176.522 205.081 176.517 205.081C176.522 205.081 176.527 205.081 176.532 205.081ZM176.505 205.081C176.5 205.081 176.495 205.079 176.49 205.079C176.495 205.079 176.5 205.081 176.505 205.081ZM176.476 205.079C176.472 205.079 176.467 205.079 176.462 205.079C176.467 205.079 176.472 205.079 176.476 205.079ZM176.449 205.079C176.444 205.079 176.439 205.079 176.436 205.079C176.439 205.079 176.444 205.079 176.449 205.079ZM176.421 205.079C176.416 205.079 176.413 205.079 176.408 205.079C176.413 205.079 176.416 205.079 176.421 205.079ZM176.387 205.079C176.385 205.079 176.383 205.079 176.382 205.079C176.383 205.079 176.385 205.079 176.387 205.079Z" fill="#DEF4FF"></path><path d="M62.5249 317.56C60.0094 317.511 57.8358 317.43 56.0822 317.345C55.6616 316.919 55.3476 316.366 55.1907 315.744L49.4919 292.617L49.2826 291.766L30.0551 213.731C29.9151 213.165 29.8483 212.599 29.8481 212.046C29.8468 208.304 32.8811 205.079 36.8304 205.079H176.354C176.363 205.079 176.372 205.079 176.382 205.079C176.383 205.079 176.385 205.079 176.387 205.079C176.395 205.079 176.401 205.079 176.408 205.079C176.413 205.079 176.416 205.079 176.421 205.079C176.426 205.079 176.431 205.079 176.436 205.079C176.439 205.079 176.444 205.079 176.449 205.079C176.454 205.079 176.457 205.079 176.462 205.079C176.467 205.079 176.472 205.079 176.475 205.079C176.48 205.079 176.485 205.079 176.49 205.079C176.495 205.079 176.5 205.081 176.505 205.081C176.508 205.081 176.513 205.081 176.516 205.081C176.521 205.081 176.526 205.081 176.531 205.081C176.536 205.081 176.54 205.081 176.544 205.081C176.549 205.081 176.554 205.081 176.559 205.081C176.563 205.081 176.568 205.081 176.571 205.081C176.576 205.081 176.581 205.081 176.586 205.081C176.589 205.083 176.594 205.083 176.599 205.083C176.602 205.083 176.609 205.083 176.612 205.083C176.617 205.083 176.622 205.083 176.625 205.083C176.63 205.083 176.635 205.083 176.64 205.083C176.643 205.083 176.648 205.083 176.651 205.083C176.658 205.084 176.663 205.084 176.668 205.084C176.671 205.084 176.674 205.084 176.679 205.084C176.684 205.084 176.689 205.084 176.694 205.084C176.697 205.084 176.702 205.084 176.706 205.084C176.711 205.086 176.716 205.086 176.721 205.086C176.725 205.086 176.729 205.086 176.734 205.086C176.739 205.086 176.744 205.086 176.749 205.086C176.752 205.086 176.755 205.088 176.76 205.088C176.765 205.088 176.772 205.088 176.776 205.088C176.78 205.088 176.783 205.088 176.786 205.088C176.791 205.088 176.798 205.089 176.803 205.089C176.806 205.089 176.809 205.089 176.813 205.089C176.819 205.089 176.826 205.089 176.831 205.089C176.834 205.091 176.837 205.091 176.839 205.091C176.846 205.091 176.852 205.091 176.857 205.091C176.86 205.091 176.864 205.091 176.867 205.091C176.872 205.093 176.878 205.093 176.885 205.093C176.887 205.093 176.89 205.093 176.893 205.093C176.9 205.093 176.906 205.094 176.911 205.094C176.915 205.094 176.918 205.094 176.92 205.094C176.926 205.094 176.933 205.096 176.939 205.096C176.941 205.096 176.944 205.096 176.946 205.096C176.953 205.096 176.959 205.096 176.966 205.097C176.969 205.097 176.971 205.097 176.972 205.097C176.979 205.097 176.987 205.097 176.994 205.099C176.995 205.099 176.997 205.099 176.999 205.099C177.007 205.099 177.013 205.099 177.02 205.101C177.022 205.101 177.023 205.101 177.025 205.101C177.033 205.101 177.04 205.101 177.048 205.102C177.05 205.102 177.05 205.102 177.051 205.102C177.059 205.102 177.068 205.104 177.074 205.104C177.076 205.104 177.078 205.104 177.078 205.104C177.086 205.104 177.094 205.106 177.102 205.106C181.382 205.41 185.05 208.311 186.338 212.413C186.35 212.446 186.36 212.479 186.371 212.514C186.36 212.479 186.35 212.446 186.338 212.413C186.347 212.507 186.356 212.601 186.366 212.695C185.947 212.644 185.525 212.614 185.094 212.614H40.9746C38.7832 212.614 37.1692 214.668 37.6969 216.797L62.5249 317.56" fill="#81B5FF"></path><path d="M62.7322 318.4H58.5756C58.5685 318.4 58.5616 318.4 58.5545 318.4C58.5524 318.4 58.5501 318.4 58.5477 318.4C58.5431 318.4 58.5384 318.4 58.5338 318.4C58.531 318.4 58.5282 318.4 58.5252 318.4C58.5211 318.4 58.5172 318.4 58.513 318.4C58.5101 318.4 58.5068 318.4 58.5038 318.4C58.5002 318.4 58.4966 318.4 58.493 318.4C58.4893 318.4 58.4859 318.4 58.4823 318.398C58.48 318.398 58.4778 318.398 58.4755 318.398C58.4594 318.398 58.4433 318.398 58.4272 318.396C58.4265 318.396 58.4255 318.396 58.4247 318.396C58.4188 318.396 58.4128 318.396 58.4069 318.396C58.4067 318.396 58.4067 318.396 58.4067 318.396C58.0836 318.38 57.7703 318.321 57.4736 318.222H57.4734C57.4697 318.22 57.466 318.219 57.4622 318.217C57.4585 318.217 57.4545 318.215 57.4507 318.214C57.4492 318.214 57.4481 318.212 57.4466 318.212C56.9284 318.034 56.4625 317.737 56.0825 317.345C57.8361 317.43 60.0098 317.511 62.5252 317.56L62.7322 318.4V318.4ZM186.426 212.703C186.406 212.7 186.386 212.696 186.367 212.695C186.357 212.601 186.347 212.507 186.339 212.413C186.35 212.446 186.36 212.479 186.372 212.514C186.39 212.576 186.408 212.639 186.426 212.703" fill="#8A9EDC"></path><path d="M36.8302 207.59C35.4475 207.59 34.1652 208.216 33.3127 209.303C32.4595 210.391 32.1605 211.786 32.4908 213.127L57.6259 315.142C57.7344 315.579 58.1249 315.885 58.5764 315.885H208.024C208.439 315.885 208.684 315.652 208.794 315.512C208.904 315.37 209.074 315.076 208.975 314.673L184.082 213.646C183.204 210.08 180.025 207.59 176.354 207.59H36.8302ZM208.024 320.909H58.5764C55.8069 320.909 53.4111 319.031 52.7489 316.343L27.6138 214.33C26.9108 211.479 27.5471 208.517 29.3581 206.205C31.1699 203.893 33.8935 202.567 36.8302 202.567H176.354C182.343 202.567 187.526 206.628 188.96 212.443L213.852 313.471C214.296 315.275 213.893 317.147 212.748 318.61C211.603 320.071 209.88 320.909 208.024 320.909" fill="#141312"></path><path d="M346.367 319.932H340.095L348.852 289.622L355.103 289.688L353.892 293.876L350.476 294.027C351.569 294.101 352.684 294.141 353.808 294.169L352.546 298.539C351.121 298.588 349.694 298.641 348.268 298.695C349.661 298.763 351.057 298.812 352.454 298.856L350.716 304.872C349.387 304.956 348.059 305.042 346.731 305.126C348.034 305.144 349.336 305.15 350.636 305.152L348.352 313.059C347.108 313.11 345.864 313.165 344.62 313.231C345.841 313.264 347.06 313.287 348.281 313.307L346.367 319.932" fill="#B9AFBE"></path><path d="M345.642 322.444H339.369L340.095 319.931H346.367L345.642 322.444ZM355.103 289.688L348.852 289.622L349.576 287.114L355.827 287.18L355.103 289.688Z" fill="#141312"></path><path d="M348.28 313.307C347.059 313.287 345.84 313.264 344.619 313.231C345.863 313.165 347.107 313.109 348.351 313.058L348.28 313.307Z" fill="#141312"></path><path d="M350.635 305.152C349.335 305.15 348.034 305.144 346.73 305.126C348.058 305.042 349.386 304.956 350.716 304.872L350.635 305.152Z" fill="#141312"></path><path d="M352.454 298.856C351.057 298.812 349.661 298.763 348.268 298.695C349.694 298.641 351.121 298.588 352.546 298.539L352.454 298.856Z" fill="#141312"></path><path d="M353.808 294.168C352.684 294.14 351.568 294.101 350.476 294.027L353.892 293.876L353.808 294.168" fill="#141312"></path><path d="M264.426 285.562L223.815 322.217C223.815 322.217 260.009 320.353 276.808 320.4C290.505 320.44 336.319 323.948 336.319 323.948L346.974 287.068L264.426 285.562" fill="white"></path><path d="M276.171 317.89C276.388 317.89 276.602 317.89 276.814 317.89C288.956 317.924 325.336 320.603 334.473 321.289L343.652 289.52L265.372 288.092L230.723 319.366C241.942 318.839 263.868 317.89 276.171 317.89V317.89ZM338.166 326.609L336.129 326.453C335.671 326.418 290.248 322.951 276.8 322.913C260.287 322.879 224.306 324.707 223.945 324.725L216.885 325.088L263.479 283.034L350.296 284.617L338.166 326.609" fill="#141312"></path><path d="M286.245 286.068C286.26 291.649 285.17 297.137 283.081 301.976L282.212 303.98C281.218 306.281 278.725 306.281 277.731 303.98L276.836 301.904C274.768 297.115 273.677 291.679 273.677 286.147V229.079C273.677 227.117 276.453 225.524 279.88 225.524C283.303 225.524 286.077 227.117 286.077 229.079C286.077 229.172 286.072 229.266 286.056 229.36L286.245 286.068" fill="#141312"></path><path d="M329.697 313.47C326.251 313.414 322.812 313.281 319.371 313.187L309.059 312.775C302.189 312.436 295.31 312.221 288.431 312.02C281.557 311.739 274.679 311.531 267.804 311.316C264.363 311.184 260.939 311.163 257.49 311.1C254.046 310.997 250.602 310.937 247.163 310.797C254.049 310.572 260.919 310.36 267.82 310.366C274.71 310.386 281.591 310.603 288.474 310.788L298.793 311.225C302.232 311.367 305.669 311.559 309.103 311.831L319.407 312.586C322.838 312.882 326.271 313.137 329.697 313.47" fill="#141312"></path><path d="M333.344 307.391C329.002 307.342 324.668 307.215 320.34 307.01C318.175 306.922 316.013 306.792 313.849 306.682C311.685 306.56 309.526 306.404 307.366 306.317L294.393 305.682C290.065 305.494 285.743 305.244 281.405 305.126C285.733 304.765 290.08 304.691 294.418 304.719C298.758 304.741 303.093 304.88 307.428 305.086C311.766 305.321 316.082 305.68 320.403 306.052C324.724 306.421 329.038 306.866 333.344 307.391" fill="#141312"></path><path d="M344.382 173.814C344.382 173.814 355.887 199.123 357.827 227.851C359.802 257.108 356.94 298.699 288.811 293.059C264.929 291.082 266.089 280.934 265.202 268.962C264.103 254.128 265.798 237.094 283.131 236.457C314.453 235.308 323.807 228.48 328.258 209.272L344.382 173.814Z" fill="white"></path><path d="M324.482 290.688C324.48 290.688 324.484 290.688 324.482 290.688V290.688ZM324.502 290.683C326.042 290.249 327.513 289.772 328.92 289.25H328.921C327.516 289.77 326.04 290.249 324.502 290.683Z" fill="#B9AFBE"></path><path d="M354.428 263.946C355.655 260.565 356.521 257.047 357.113 253.478C356.522 257.048 355.659 260.563 354.431 263.944C354.431 263.944 354.429 263.944 354.428 263.946" fill="#B9AFBE"></path><path d="M350.187 272.652C351.934 269.901 353.328 266.98 354.429 263.946C354.43 263.945 354.432 263.945 354.432 263.945C353.331 266.977 351.939 269.901 350.193 272.651C350.191 272.651 350.19 272.651 350.187 272.652Z" fill="#8C7B94"></path><path d="M347.866 275.933C347.865 275.933 347.863 275.933 347.861 275.933C348.699 274.872 349.474 273.776 350.186 272.652C350.19 272.651 350.191 272.651 350.193 272.651C349.477 273.776 348.704 274.87 347.866 275.933ZM357.114 253.478C357.147 253.27 357.181 253.06 357.214 252.851C357.181 253.06 357.148 253.27 357.114 253.478Z" fill="#141312"></path><path d="M338.613 284.404H338.608C338.993 284.149 339.37 283.893 339.741 283.629C339.742 283.629 339.744 283.629 339.745 283.629C339.375 283.893 338.998 284.149 338.613 284.404Z" fill="#141312"></path><path d="M339.74 283.629C342.952 281.353 345.633 278.762 347.861 275.933C347.862 275.933 347.864 275.933 347.866 275.933C345.638 278.76 342.957 281.353 339.745 283.629C339.744 283.629 339.742 283.629 339.74 283.629Z" fill="#141312"></path><path d="M265.653 275.359C265.65 275.316 265.645 275.274 265.642 275.231C265.647 275.274 265.65 275.316 265.655 275.359C265.653 275.359 265.655 275.359 265.653 275.359Z" fill="#B9AFBE"></path><path d="M265.688 275.709C265.676 275.593 265.665 275.476 265.653 275.359C265.655 275.359 265.653 275.359 265.655 275.359C265.665 275.476 265.676 275.593 265.688 275.709Z" fill="#8C7B94"></path><path d="M265.642 275.231C265.553 274.276 265.485 273.301 265.423 272.307C265.485 273.301 265.555 274.276 265.642 275.231Z" fill="#141312"></path><path d="M267.465 283.106H267.463C266.422 280.881 265.959 278.385 265.688 275.71C265.961 278.385 266.424 280.881 267.465 283.106Z" fill="#141312"></path><path d="M264.975 264.678C264.944 263.597 264.933 262.513 264.946 261.435C264.933 262.513 264.944 263.597 264.975 264.678Z" fill="#2976B4"></path><path d="M264.985 264.955C264.982 264.861 264.979 264.771 264.976 264.678C264.979 264.771 264.982 264.863 264.985 264.955Z" fill="#2E568D"></path><path d="M328.922 289.25H328.92C332.57 287.901 335.785 286.268 338.609 284.404H338.613C335.788 286.268 332.575 287.901 328.922 289.25ZM271.212 287.827C269.473 286.453 268.286 284.865 267.463 283.106H267.465C268.288 284.865 269.473 286.453 271.212 287.827Z" fill="#141312"></path><path d="M300.766 293.576C297.024 293.576 293.045 293.408 288.813 293.06C279.972 292.327 274.564 290.476 271.212 287.827C269.472 286.453 268.288 284.865 267.465 283.106C266.423 280.881 265.961 278.385 265.688 275.71C265.676 275.593 265.665 275.476 265.655 275.359C265.65 275.316 265.647 275.274 265.642 275.231C265.555 274.276 265.486 273.301 265.423 272.307C265.352 271.211 265.286 270.094 265.203 268.96C265.105 267.645 265.03 266.316 264.985 264.981C264.985 264.976 264.985 264.973 264.985 264.97C264.985 264.965 264.985 264.96 264.985 264.955C264.982 264.863 264.979 264.771 264.975 264.678C264.944 263.597 264.933 262.513 264.946 261.435C264.946 261.427 264.946 261.42 264.946 261.414C264.946 261.407 264.946 261.397 264.946 261.391C265.023 255.679 265.813 250.103 268.016 245.677C268.048 247.441 268.135 249.204 268.268 250.939C269.153 262.906 267.992 273.059 291.871 275.032C296.106 275.382 300.091 275.55 303.836 275.55C338.161 275.55 352.519 261.42 358.084 244.176C357.938 247.067 357.663 249.975 357.214 252.851C357.181 253.06 357.146 253.27 357.113 253.478C356.521 257.047 355.656 260.565 354.428 263.946C353.327 266.98 351.933 269.901 350.186 272.652C349.474 273.776 348.698 274.872 347.861 275.933C345.633 278.762 342.953 281.354 339.741 283.629C339.37 283.893 338.994 284.149 338.608 284.404C335.785 286.269 332.57 287.901 328.92 289.25C327.513 289.772 326.042 290.249 324.502 290.683C324.495 290.685 324.489 290.687 324.482 290.688C317.894 292.541 310.06 293.576 300.766 293.576" fill="#B9AFBE"></path><path d="M320.733 222.288C321.251 221.205 321.861 220.206 322.459 219.168C323.049 218.131 323.699 217.098 324.303 216.01C325.529 213.843 326.65 211.538 327.973 209.206C328.057 209.058 328.242 209.005 328.391 209.089C328.484 209.14 328.539 209.239 328.545 209.338C328.697 212.035 328.407 214.71 327.759 217.358C327.423 218.676 327.017 220.002 326.404 221.249C325.797 222.495 325.055 223.704 324.056 224.712C323.247 225.526 321.93 225.531 321.114 224.723C320.469 224.083 320.331 223.125 320.701 222.35L320.733 222.288" fill="#141312"></path><path d="M300.608 296.081C296.782 296.081 292.782 295.908 288.604 295.562C264.238 293.545 263.539 282.397 262.862 271.616C262.81 270.803 262.759 269.98 262.698 269.148C261.673 255.296 263.657 245.787 268.768 240.077C272.21 236.232 277.012 234.168 283.037 233.948C302.966 233.215 313.475 230.147 319.31 223.353C320.215 222.299 321.801 222.181 322.851 223.084C323.904 223.988 324.024 225.574 323.119 226.625C316.268 234.603 304.71 238.178 283.223 238.968C278.547 239.139 275.044 240.597 272.51 243.427C268.36 248.066 266.787 256.357 267.708 268.776C267.771 269.628 267.823 270.471 267.876 271.301C268.539 281.897 268.979 288.896 289.019 290.557C314.025 292.625 332.145 288.317 342.875 277.75C356.009 264.813 356.425 244.378 355.321 228.021C353.434 200.071 342.209 175.102 342.097 174.852C341.522 173.59 342.08 172.101 343.342 171.527C344.606 170.953 346.095 171.51 346.669 172.774C347.147 173.824 358.385 198.832 360.333 227.682C361.51 245.111 360.99 266.959 346.4 281.329C336.443 291.138 321.069 296.081 300.608 296.081" fill="#141312"></path><path d="M348.488 277.63C348.452 277.63 348.414 277.63 348.378 277.628C346.993 277.569 345.916 276.396 345.977 275.01C347.764 233.707 322.284 227.007 321.198 226.742C319.854 226.413 319.024 225.059 319.345 223.714C319.669 222.37 321.017 221.539 322.36 221.853C322.681 221.931 330.317 223.798 337.661 231.44C344.309 238.357 352.019 251.571 350.996 275.227C350.938 276.577 349.824 277.63 348.488 277.63" fill="#141312"></path><path d="M137.73 244.6C135.411 242.356 133.149 240.172 130.881 237.979C130.876 237.923 130.881 237.854 130.881 237.791C133.125 237.722 135.376 237.66 137.651 237.591C137.97 240.001 137.947 242.259 137.73 244.6V244.6ZM137.103 248.319C136.365 251.192 135.233 253.878 133.4 256.236C131.984 258.047 130.299 259.584 128.493 260.994C123.598 264.822 118.176 267.769 112.579 270.413C112.305 270.54 112.128 270.551 111.899 270.317C111.402 269.797 110.859 269.305 110.341 268.797C110.306 268.769 110.288 268.718 110.232 268.621C110.362 268.478 110.505 268.335 110.648 268.187C113.607 265.113 116.584 262.046 119.542 258.967C120.399 258.087 120.251 256.818 119.246 256.224C118.543 255.808 117.721 255.939 117.081 256.591C115.298 258.429 113.521 260.269 111.746 262.113C110.42 263.485 109.107 264.85 107.729 266.278C107.089 265.661 106.479 265.101 105.913 264.502C105.816 264.394 105.85 264.079 105.936 263.913C107.318 260.983 108.684 258.041 110.147 255.145C111.591 252.272 113.316 249.558 115.28 247.011C117.12 244.605 119.177 242.419 121.833 240.898C123.536 239.922 125.329 239.162 127.225 238.665C127.396 238.614 127.676 238.751 127.825 238.894C130.167 241.133 132.487 243.378 134.81 245.629C135.508 246.297 136.199 246.983 136.913 247.64C137.124 247.839 137.177 248.028 137.103 248.319V248.319ZM126.888 269.643C126.557 271.779 125.586 273.623 124.306 275.331C122.713 277.434 120.742 279.119 118.576 280.714C118 277.845 117.429 275.04 116.87 272.294C120.217 270.373 123.49 268.501 126.779 266.615C127.06 267.558 127.049 268.603 126.888 269.643ZM103.782 259.903C101.143 259.464 98.4078 259.006 95.5973 258.538C97.9223 255.179 100.463 252.17 104.246 250.49C105.878 249.764 107.854 249.507 109.088 249.803C107.336 253.152 105.575 256.499 103.782 259.903ZM141.323 240.339C141.261 238.608 141.226 236.855 140.632 235.175C140.454 235.009 140.29 234.838 140.112 234.672C139.592 234.57 139.079 234.41 138.547 234.359C134.799 233.969 131.087 234.153 127.419 235.032C122.639 236.181 118.417 238.346 115.058 242.001C113.842 243.32 112.768 244.767 111.659 246.177C111.363 246.56 111.117 246.736 110.597 246.588C109.375 246.239 108.106 246.193 106.844 246.32C103.463 246.674 100.629 248.211 98.0984 250.386C95.3571 252.752 93.3002 255.671 91.4375 258.743C90.6444 260.046 91.2154 261.281 92.7292 261.549C93.6836 261.708 94.6363 261.863 95.5907 262.023C97.8763 262.399 100.155 262.771 102.434 263.148C102.439 263.216 102.451 263.25 102.446 263.285C102.434 263.331 102.423 263.382 102.4 263.428C101.669 264.729 102.051 265.776 103.16 266.643C103.28 266.74 103.389 266.86 103.497 266.969C104.096 267.551 104.708 268.14 105.342 268.746C104.702 269.414 104.062 269.997 103.52 270.665C103.245 271.002 103.028 271.464 102.971 271.899C102.869 272.601 103.319 273.235 103.971 273.498C104.662 273.784 105.314 273.669 105.839 273.156C106.507 272.511 107.135 271.825 107.81 271.127C108.672 271.968 109.488 272.761 110.306 273.544C111.242 274.434 111.808 274.527 112.973 274.007C113.184 273.905 113.396 273.824 113.648 273.722C113.704 273.979 113.757 274.184 113.796 274.378C114.425 277.497 115.042 280.621 115.687 283.73C115.99 285.202 117.268 285.729 118.514 284.888C119.639 284.134 120.76 283.346 121.851 282.524C124.363 280.621 126.58 278.423 128.202 275.698C130.229 272.271 131.092 268.654 129.841 264.725C129.79 264.57 129.882 264.279 130.007 264.177C131.11 263.206 132.252 262.279 133.354 261.304C135.845 259.087 137.713 256.413 139.026 253.358C140.815 249.204 141.489 244.841 141.323 240.339" fill="#141312"></path><path d="M131.624 252.396C129.356 254.71 125.667 254.786 123.365 252.551C121.051 250.323 120.994 246.634 123.233 244.297C125.432 242.007 129.127 241.956 131.448 244.182C133.743 246.399 133.829 250.141 131.624 252.396V252.396ZM136.914 247.639C136.2 246.983 135.509 246.297 134.811 245.629C132.487 243.378 130.167 241.133 127.826 238.894C127.676 238.751 127.396 238.614 127.225 238.665C125.33 239.162 123.536 239.922 121.833 240.898C119.177 242.418 117.12 244.605 115.281 247.011C113.316 249.558 111.592 252.271 110.147 255.144C108.684 258.04 107.318 260.983 105.936 263.913C105.851 264.079 105.816 264.394 105.913 264.502C106.479 265.101 107.09 265.661 107.73 266.278C109.107 264.849 110.42 263.485 111.746 262.113C113.522 260.268 115.299 258.429 117.081 256.591C117.721 255.939 118.544 255.807 119.246 256.224C120.252 256.818 120.4 258.086 119.543 258.967C116.584 262.045 113.607 265.113 110.649 268.186C110.506 268.334 110.362 268.478 110.232 268.621C110.288 268.718 110.307 268.769 110.341 268.797C110.859 269.305 111.402 269.797 111.899 270.317C112.128 270.551 112.306 270.539 112.579 270.413C118.177 267.768 123.599 264.821 128.494 260.994C130.299 259.584 131.984 258.047 133.401 256.235C135.234 253.877 136.366 251.192 137.103 248.319C137.177 248.028 137.124 247.839 136.914 247.639" fill="white"></path><path d="M137.729 244.599C135.409 242.358 133.147 240.172 130.881 237.979C130.878 237.92 130.881 237.856 130.879 237.791C133.125 237.726 135.376 237.661 137.652 237.591C137.973 240 137.947 242.257 137.729 244.599Z" fill="#DB2C2C"></path><path d="M109.092 249.805C107.335 253.149 105.576 256.499 103.786 259.906C101.141 259.462 98.4065 259.006 95.5977 258.541C97.9243 255.177 100.463 252.166 104.246 250.489C105.879 249.762 107.853 249.507 109.092 249.805" fill="#DB2C2C"></path><path d="M124.305 275.333C122.71 277.436 120.744 279.122 118.575 280.712C117.997 277.847 117.428 275.042 116.869 272.294C120.217 270.375 123.488 268.503 126.783 266.614C127.062 267.558 127.048 268.601 126.891 269.644C126.559 271.782 125.588 273.625 124.305 275.333" fill="#DB2C2C"></path><path d="M129.58 250.529C128.431 251.705 126.488 251.735 125.283 250.591C124.038 249.415 124.026 247.411 125.255 246.177C126.402 245.012 128.385 245 129.557 246.154C130.779 247.353 130.784 249.296 129.58 250.529V250.529ZM131.447 244.182C129.127 241.956 125.431 242.007 123.233 244.297C120.994 246.634 121.051 250.323 123.365 252.551C125.667 254.786 129.356 254.71 131.623 252.396C133.828 250.141 133.743 246.399 131.447 244.182" fill="#141312"></path><path d="M129.578 250.529C128.43 251.706 126.488 251.735 125.28 250.592C124.039 249.415 124.026 247.412 125.254 246.178C126.404 245.013 128.383 245 129.553 246.154C130.776 247.353 130.787 249.297 129.578 250.529" fill="#22A7F0"></path></svg> 